<svg width="313" height="357" viewBox="0 0 313 357" fill="none" xmlns="http://www.w3.org/2000/svg">
<path d="M120.838 0C46.6112 244.703 14.4589 354.896 0 357H71.4713C59.506 349.593 98.9193 230.817 147.953 70.5458C212.622 270.621 235.414 350.926 225.171 357H297.379C282.745 348.437 233.898 190.324 176.099 0H120.838Z" fill="#454545"/>
<path d="M136.458 0C62.2315 244.703 30.0793 354.896 15.6204 357H87.0916C75.1264 349.593 114.54 230.817 163.573 70.5458C228.242 270.621 251.034 350.926 240.792 357H313C298.365 348.437 249.519 190.324 191.72 0H136.458Z" fill="black"/>
</svg>
